HIERARCHY
ROOT HipCenter
{
    OFFSET 0.0 0.0 -0.0
    CHANNELS 6 Xposition Yposition Zposition Zrotation Xrotation Yrotation
    JOINT Spine
    {
        OFFSET 0.0 0.11590848863124847 0.0
        CHANNELS 3 Zrotation Xrotation Yrotation
        JOINT ShoulderCenter
        {
            OFFSET 0.0 0.33247271180152893 0.0
            CHANNELS 3 Zrotation Xrotation Yrotation
            JOINT LeftShoulder
            {
                OFFSET 0.18772348761558533 0.0 0.0
                CHANNELS 3 Zrotation Xrotation Yrotation
                JOINT LeftElbow
                {
                    OFFSET 0.2928994297981262 0.0 0.0
                    CHANNELS 3 Zrotation Xrotation Yrotation
                    JOINT LeftWrist
                    {
                        OFFSET 0.3032001256942749 0.0 0.0
                        CHANNELS 3 Zrotation Xrotation Yrotation
                        JOINT LeftHand
                        {
                            OFFSET 0.036269381642341614 0.0 0.0
                            CHANNELS 3 Zrotation Xrotation Yrotation
                            End Site
                            {
                                OFFSET 0.014507753774523735 0.0 0.0
                            }
                        }
                    }
                }
            }
            JOINT RightShoulder
            {
                OFFSET -0.18772348761558533 0.0 0.0
                CHANNELS 3 Zrotation Xrotation Yrotation
                JOINT RightElbow
                {
                    OFFSET -0.2928994297981262 0.0 0.0
                    CHANNELS 3 Zrotation Xrotation Yrotation
                    JOINT RightWrist
                    {
                        OFFSET -0.3032001256942749 0.0 0.0
                        CHANNELS 3 Zrotation Xrotation Yrotation
                        JOINT RightHand
                        {
                            OFFSET -0.036269381642341614 0.0 0.0
                            CHANNELS 3 Zrotation Xrotation Yrotation
                            End Site
                            {
                                OFFSET -0.014507753774523735 0.0 0.0
                            }
                        }
                    }
                }
            }
            End Site
            {
                OFFSET 0.0 0.1329890936613083 0.0
            }
        }
    }
    JOINT LeftHip
    {
        OFFSET 0.13845577836036682 0.0 0.0
        CHANNELS 3 Zrotation Xrotation Yrotation
        JOINT LeftKnee
        {
            OFFSET 0.0 -0.4246312379837036 0.0
            CHANNELS 3 Zrotation Xrotation Yrotation
            JOINT LeftAnkle
            {
                OFFSET 0.0 -0.4313071370124817 0.0
                CHANNELS 3 Zrotation Xrotation Yrotation
                JOINT LeftFoot
                {
                    OFFSET 0.0 -0.13055050373077393 0.0
                    CHANNELS 3 Zrotation Xrotation Yrotation
                    End Site
                    {
                        OFFSET 0.0 0.0 0.05222021043300629
                    }
                }
            }
        }
    }
    JOINT RightHip
    {
        OFFSET -0.13845577836036682 0.0 0.0
        CHANNELS 3 Zrotation Xrotation Yrotation
        JOINT RightKnee
        {
            OFFSET 0.0 -0.4246312379837036 0.0
            CHANNELS 3 Zrotation Xrotation Yrotation
            JOINT RightAnkle
            {
                OFFSET 0.0 -0.4313071370124817 0.0
                CHANNELS 3 Zrotation Xrotation Yrotation
                JOINT RightFoot
                {
                    OFFSET 0.0 -0.13055050373077393 0.0
                    CHANNELS 3 Zrotation Xrotation Yrotation
                    End Site
                    {
                        OFFSET 0.0 0.0 0.05222021043300629
                    }
                }
            }
        }
    }
}
MOTION
Frames: 10
Frame Time: 0.03333333333333333
0.21400000154972076 -0.18000000715255737 1.4980000257492065 -16.927504468380533 -77.98897003080238 145.97643625488533 -7.641378069809487 2.969917048652418 0.1958661049735255 -3.2459151426495467e-07 -9.894829326878188e-07 17.326757736691118 102.50637210545119 14.180728500859816 -152.43531550440667 3.4731194009052062e-06 -4.830950974911456e-06 87.93900374284468 -5.501687059968351e-06 -63.53743590312133 33.9101071432933 0.0 0.0 -7.951386703658792e-16 -103.70909780532772 -6.96617603796358 139.9983394633219 2.4581158519424874e-06 7.899242646608504e-07 -100.10681106124356 -3.3262537247452065e-06 -59.11281101188485 -24.733626615494323 0.0 0.0 7.951386703658792e-16 177.64444412292414 -44.647735217058866 -124.93988775522958 73.60327871065365 30.539448661394083 -72.09626916947262 -69.36192701969017 -81.89626286720296 -11.052007198863093 6.3611093629270335e-15 1.7655625192200634e-31 3.1805546814635168e-15 7.418168027187976 -38.39821137307085 25.16354702663314 7.405646103631976 16.69545660993626 11.938800585487662 -26.476985164111895 -36.677994655005385 -47.22330348330298 3.975693351829396e-16 -4.138037154422024e-33 -1.1927080055488188e-15
0.21400000154972076 -0.15299999713897705 1.3880000114440918 -11.309937576093812 -84.93231849222148 151.31494051444616 -9.489421726159325 3.822790809118906 0.42381320807600587 -5.322006227290361e-07 -3.1317159519987416e-06 16.40834356275716 104.71992578771169 16.29862028346125 -138.8665517258067 4.014076045905139e-06 4.590288429643595e-06 87.797068652558 4.955339157525639e-06 -62.75016450968348 31.41437427500607 6.3611093629270335e-15 1.3241718894150476e-31 2.3854160110976376e-15 -103.9737240399145 -4.119618084772601 135.06328992553426 3.6670081871848903e-06 1.9031255907339033e-07 -103.02244896621747 6.822174103654338e-07 -60.7588171708169 -25.64407637588796 -3.1805546814635168e-15 3.1805546814635168e-15 2.3854160110976376e-15 -176.74580058044617 -47.87612784132113 -122.13980067424257 73.31879310745569 25.94201013824914 -71.18576232044579 -106.45395194365624 -80.99882678273624 -43.29994248442053 3.531125038440127e-31 -6.3611093629270335e-15 6.3611093629270335e-15 8.60526456316448 -45.11537482246672 19.624899571961507 12.869564937759666 25.73987868144835 15.78723532173265 -35.62444708599446 -36.24565968806804 -51.81489465225758 0.0 0.0 -3.9756933518293955e-16
0.20900000631809235 -0.11599999666213989 1.2760000228881836 149.03618383951806 -87.1223660823969 -49.8351280278108 -10.236373077367315 4.3609502215573315 0.6481736017112164 -1.0981845783256658e-07 -8.0360629202723e-07 16.864170003204066 105.90484076621958 18.5699662341166 -123.53648373103152 7.726455311159055e-08 2.3267199908153226e-06 84.87597503504642 7.795254748243988e-06 -63.69395027475577 33.91048230063702 -3.1805546814635168e-15 0.0 0.0 -105.5382097321245 -0.8510071635417453 127.80135399349278 8.989569435682526e-07 -1.7423772873175642e-06 -103.41837705508041 7.546331520519517e-06 -59.27574541455822 -27.13896889385741 3.1805546814635168e-15 6.620859447075238e-32 2.3854160110976376e-15 -174.27439221728852 -53.01862745571432 -121.6156495911033 67.70206850078344 20.416349400150267 -65.31173828643809 -111.82966606950589 -76.22214165213288 -43.27150847036669 3.1805546814635168e-15 6.3611093629270335e-15 3.1805546814635168e-15 9.391229344533167 -53.12910122892311 12.227539774911644 22.152082554598525 39.375388256232256 17.157613563042116 -46.17730589459385 -34.56740175914727 -51.810916619659686 3.975693351829396e-16 3.1805546814635168e-15 -1.5902773407317584e-15
0.2029999941587448 -0.07500000298023224 1.159000039100647 160.01689300578101 -78.29600456366593 -39.942964516175486 -10.342522254279135 4.258623691694237 0.7137678493631544 -8.09759104716025e-07 -2.2827746505375645e-06 16.39530219170203 106.3340323922616 21.429380227838454 -108.99021417112722 -6.957357600889679e-06 -5.582981336908665e-07 79.75077752892877 -9.196187607944448e-07 -61.319210690666516 36.347367031204094 3.1805546814635168e-15 -4.4139062980501586e-32 -1.5902773407317584e-15 -107.58071757749455 1.8591298815238044 119.63741196495005 -6.249596015896439e-06 6.220076318801472e-06 -102.17691441152404 5.590519164689844e-06 -62.126524334600155 -28.353186277693656 -3.1805546814635168e-15 4.4139062980501586e-32 -1.5902773407317584e-15 -174.75408510957197 -58.19059995920194 -124.01365308228995 57.744570811322895 15.652642694264623 -48.60427982505716 -95.77569774965947 -61.40226940914369 -23.418283231032735 6.3611093629270335e-15 -3.1805546814635168e-15 1.7655625192200634e-31 7.4452781033493824 -60.00151531807493 3.6656688345751434 36.03768933882566 52.35794122714972 11.936908037128811 -48.27434203441958 -30.542476197862296 -38.40481815249982 2.981770013872047e-16 0.0 0.0
0.19499999284744263 -0.03500000014901161 1.0360000133514404 161.56505522287574 -69.16095472685377 -38.03787267401296 -10.030232069390891 4.1536188743019675 0.7035741964433767 1.5933087865761363e-06 -3.155690581826297e-06 14.878825264984604 106.34009065785905 23.16391249132643 -96.08945013825338 7.833706179273056e-07 3.6656054730476388e-06 74.14159872103846 -7.4245843699543575e-06 -62.78270964010361 36.82770219076167 -6.361109362927033e-15 -4.413906298050159e-31 7.95138670365879e-15 -109.5266052502615 5.641603349788973 113.33565386031754 5.686205310594112e-06 7.99195224257861e-07 -100.06056440813938 1.0171550912595292e-05 -58.31403584326954 -30.374567709772048 6.3611093629270335e-15 -1.3241718894150476e-31 -2.3854160110976376e-15 -177.75914471147857 -63.1252368632715 -127.45368000500488 45.211007985719625 10.58627133649548 -26.160638890474367 -83.03951529773488 -36.49395174548388 -9.685552429091514 1.5902773407317584e-15 8.827812596100317e-32 6.3611093629270335e-15 1.3924658158245555 -63.36678980264575 -5.827456028529363 54.96781526479994 60.43447513111215 -1.0671784887950502 -50.830158455577376 -30.66383163609988 -31.49415629797953 1.987846675914698e-16 0.0 0.0
0.18700000643730164 -0.004999999888241291 0.9100000262260437 161.24134367562857 -61.005212950508266 -38.1337814664323 -9.956521420546393 4.203248450372567 0.6663442794191476 -1.2997481449525567e-06 -2.189021232942076e-06 14.687627430382248 106.39311201839365 23.0358619109402 -84.53971915929691 1.840568631789194e-07 1.5976578830089777e-06 68.41965790512832 -2.345504433442665e-06 -58.69696318481421 37.42032386331108 0.0 0.0 -6.3611093629270335e-15 -111.0725627874758 10.683907588951893 110.03713761692228 -5.891095576931865e-06 -4.539995807523066e-06 -97.91151752235287 7.678889885020978e-07 -55.29587939625898 -32.68176586525413 -1.7655625192200634e-31 3.1805546814635168e-15 6.3611093629270335e-15 175.62963562349796 -66.97889791611361 -132.5496601284296 34.34183436332473 5.288385869156645 -9.627153601950994 -70.25474510640508 -16.812031048030526 -2.6876128506438346 -3.310429723537619e-32 1.5902773407317582e-15 2.385416011097637e-15 -1.2682303328747548 -62.93178767795412 -10.362322634234877 71.79763945697322 65.77293863840379 -16.02671316304668 -51.49694328215739 -34.93426190343985 -29.295161449901958 3.9756933518293955e-16 -6.896728590703373e-34 -1.9878466759146977e-16
0.17800000309944153 0.009999999776482582 0.7839999794960022 160.7873269977089 -53.07384713654853 -37.43012959930342 -9.721679982865714 4.242426335481199 0.7012379298345383 -3.7750676248148365e-07 -2.2882660213401833e-06 13.175248858390704 106.2798945155932 22.362271487916843 -74.22203823256834 -2.40943970970557e-06 1.8778257507746024e-06 63.94389335054616 -3.8256482595789226e-06 -51.96483885420317 36.237576989268995 0.0 0.0 3.1805546814635168e-15 -113.2790862253175 15.756589753005306 108.12432434318944 1.0340558239587072e-06 2.7550585615759743e-07 -95.19204512454057 2.5993872442557463e-06 -54.9549741922354 -37.467479572360446 6.361109362927033e-15 -8.827812596100317e-32 -1.5902773407317582e-15 171.627851824893 -68.04133596308361 -136.21102944761293 31.218656089174033 5.087549467241683 -8.266492560483005 -64.31623533909413 -19.100704204063256 -1.9970794361722273 2.758691436281349e-32 1.5902773407317588e-15 -1.9878466759146984e-15 -0.985370949264186 -61.46027206025742 -11.582139329285821 82.82048123945385 71.21820128904399 -27.260789977804336 -51.97594693123176 -38.47658001731935 -30.229063675560685 3.9756933518293955e-16 -1.7241821476758432e-34 -4.9696166897867443e-17
0.16599999368190765 0.008999999612569809 0.6579999923706055 162.22868532842037 -45.03199617484587 -35.50030305347567 -10.1317477618113 2.900100408001485 0.49839439790746926 1.1358764119471007e-06 -3.5509633836027845e-06 11.010932314952383 107.03803603161154 21.29306811552725 -65.82802829309351 2.5644388549134603e-06 4.537955428637144e-06 59.901437143541976 -1.1239004457826595e-09 -51.18909839090518 37.02861424572105 -6.361109362927032e-15 0.0 0.0 -114.9623699581573 20.21077229520511 105.34165947575823 4.4502075780163125e-06 -8.838034843817206e-07 -91.2730423442561 -3.85172349897257e-06 -47.4121145079007 -39.186224726358006 0.0 0.0 0.0 166.65208964934288 -65.6676775199952 -139.38335880665994 37.291604340797306 10.452013538402959 -21.52541938704658 -60.87827436374582 -31.905963220538442 1.2848248696006008 3.975693351829395e-16 3.275946080584102e-33 9.442271710594813e-16 1.4985484768221664 -60.3650712437321 -6.459741383040875 85.3734748417554 73.82132319448031 -30.34012618580491 -52.24196320796576 -37.224528731879886 -30.209676627607298 7.951386703658792e-16 -1.3793457181406746e-33 -1.987846675914698e-16
0.15199999511241913 -0.007000000216066837 0.5370000004768372 164.140640965664 -37.815289822007216 -32.88389404327448 -10.920521544813395 1.8823852555499512 0.3080005964596285 2.531806101227558e-07 4.993994931388756e-07 7.769669533001911 108.8333570644693 19.906636079206653 -60.53673004610225 -3.825052847168204e-06 -7.383118362444158e-07 56.770337012331936 -1.371487600298488e-06 -51.95437509503197 37.89803659074092 0.0 0.0 1.5902773407317584e-15 -117.75367672244171 23.859829627802007 103.30058479972035 -3.085637256263135e-07 1.0254276141023228e-06 -88.18113652108927 -3.063029187787734e-07 -41.346737822614614 -38.08101441915091 -2.2069531490250793e-32 -1.5902773407317584e-15 -1.5902773407317584e-15 163.5666867556683 -64.26481568053113 -140.26193911299293 47.42721643500769 14.793550481334679 -46.57006642207553 -53.155664918155566 -45.25595298058968 12.14791954413165 9.517485455170654e-32 1.5902773407317584e-15 -6.858071031905708e-15 2.4498188140543355 -59.0242577488576 -0.47774868932361786 80.64016413051087 73.51088223507261 -26.84963246988752 -54.46848908308258 -33.49449746334982 -30.488399581765222 -1.5902773407317584e-15 6.3611093629270335e-15 1.7890620083232284e-15
0.1379999965429306 -0.03799999877810478 0.4180000126361847 165.40342609964645 -30.741955312989944 -29.792861869193676 -11.587640940572822 0.9452936818556495 0.15460067999411392 1.4111286238374902e-06 -1.9633782268393367e-07 3.931500027793688 111.37969226423903 17.2957408683893 -59.6288583337175 2.1801006288467304e-06 2.5207563100720823e-06 56.08730231350358 -4.445918187153871e-06 -45.17411037599694 47.85180574283896 3.531125038440127e-31 6.3611093629270335e-15 -6.3611093629270335e-15 -122.4597963835697 27.51008708832623 104.3474392975099 2.987840505710318e-07 3.2566367594988007e-06 -87.01978621023844 4.785129901264124e-06 -36.613598837628324 -39.5778261553107 -1.1034765745125397e-32 7.951386703658792e-16 1.5902773407317584e-15 161.0790982332866 -64.81635781003754 -142.24493370145166 56.546907765768246 19.29732825876841 -81.53490789596691 -21.03041682230624 -61.4912432165607 45.79080818200723 -2.641447050239392e-31 -3.1805546814635176e-15 -9.516815960941618e-15 -0.2591625582330932 -58.073017288761804 0.32451454389734147 75.37010665940343 71.77782215946337 -20.308448655538974 -56.287407916932054 -24.72131227496926 -26.304847871558458 -3.1805546814635168e-15 -6.3611093629270335e-15 -3.1805546814635168e-15
